# xmcd
#
# Track frame offsets:
#	150
#	10267
#	37790
#	50182
#	69065
#	78142
#	87612
#	99310
#	111835
#	125480
#	134420
#	146835
#	156482
#	166025
#	177027
#
# Disc length: 2507 seconds
#
# Revision: 1
# Processed by: cddbd v1.5.2PL0 Copyright (c) Steve Scherf et al.
# Submitted via: audiograbber 1.83.01
#
DISCID=c009c90f
DTITLE=Various Artist - E-103 Summerfestival Of Rock 'n Soul (Vol. 3)
DYEAR=1992
DGENRE=Oldies
TTITLE0=Chuck Berry - Beautiful Deliah
TTITLE1=Fats Domino - Please Don't Leave Me
TTITLE2=Tina Turner - Rock Me Baby
TTITLE3=Jerry Lee Lewis - Whole Lotta Shakin' Goin' On
TTITLE4=Little Richard - Jenny Jenny
TTITLE5=Tina Turner - Ain't Nobody Buisness
TTITLE6=Chuck Berry - Nadine
TTITLE7=Ray Charles - Rockin' Chair Blues
TTITLE8=Ray Charles - Baby Let Me Hold Your Hand
TTITLE9=Chuck Berry - Rip It Up
TTITLE10=Tina Turner - Poor Little Fool
TTITLE11=Little Richard - Keep A Knockin'
TTITLE12=Jerry Lee Lewis - High School Confidential
TTITLE13=Tina Turner - Freedom Sound
TTITLE14=Chuck Berry - Promised Land
EXTD=
EXTT0=
EXTT1=
EXTT2=
EXTT3=
EXTT4=
EXTT5=
EXTT6=
EXTT7=
EXTT8=
EXTT9=
EXTT10=
EXTT11=
EXTT12=
EXTT13=
EXTT14=
PLAYORDER=
